<?xml version="1.0" encoding="UTF-8" standalone="no"?>
<!DOCTYPE svg PUBLIC "-//W3C//DTD SVG 1.1//EN" "http://www.w3.org/Graphics/SVG/1.1/DTD/svg11.dtd">
<svg version="1.1" xmlns="http://www.w3.org/2000/svg" xmlns:xlink="http://www.w3.org/1999/xlink" preserveAspectRatio="xMidYMid meet" viewBox="0 0 32 32" width="32" height="32"><defs><path d="M16.19 29.76C17.11 29.76 18 29.62 18.88 29.32L18.88 17.08C17.91 17.37 16.97 17.51 16.05 17.51C15.13 17.51 14.24 17.37 13.38 17.08L13.38 29.32C14.34 29.62 15.28 29.76 16.19 29.76Z" id="bfY7mu1d5"></path><path d="M16.13 15.58C16.81 15.58 17.5 15.47 18.18 15.25L18.18 9.72C17.5 9.9 16.81 9.99 16.13 9.99C15.44 9.99 14.75 9.9 14.07 9.72L14.07 15.25C14.75 15.47 15.44 15.58 16.13 15.58Z" id="aKcKME0ms"></path><path d="M16.13 8.22C16.6 8.22 17.07 8.15 17.54 8C17.54 7.05 17.54 6.46 17.54 6.23C17.54 6.02 17.52 5.81 17.47 5.61C17.01 3.36 16.56 2.24 16.13 2.24C15.69 2.24 15.24 3.36 14.78 5.61C14.73 5.81 14.71 6.02 14.71 6.23C14.71 6.46 14.71 7.05 14.71 8C15.18 8.15 15.65 8.22 16.13 8.22Z" id="a63yZczSE"></path><path d="M8.19 29.76C9.11 29.76 10 29.62 10.88 29.32L10.88 17.08C9.91 17.37 8.97 17.51 8.05 17.51C7.13 17.51 6.24 17.37 5.38 17.08L5.38 29.32C6.34 29.62 7.28 29.76 8.19 29.76Z" id="a72SRu56I"></path><path d="M8.12 15.58C8.81 15.58 9.5 15.47 10.18 15.25L10.18 9.72C9.5 9.9 8.81 9.99 8.12 9.99C7.44 9.99 6.75 9.9 6.07 9.72L6.07 15.25C6.75 15.47 7.44 15.58 8.12 15.58Z" id="bHTzs4wmx"></path><path d="M8.13 8.22C8.6 8.22 9.07 8.15 9.54 8C9.54 7.05 9.54 6.46 9.54 6.23C9.54 6.02 9.52 5.81 9.47 5.61C9.01 3.36 8.56 2.24 8.13 2.24C7.69 2.24 7.24 3.36 6.78 5.61C6.73 5.81 6.71 6.02 6.71 6.23C6.71 6.46 6.71 7.05 6.71 8C7.18 8.15 7.65 8.22 8.13 8.22Z" id="acPDVf71x"></path><path d="M23.94 29.76C24.86 29.76 25.75 29.62 26.63 29.32L26.63 17.08C25.66 17.37 24.72 17.51 23.8 17.51C22.88 17.51 21.99 17.37 21.13 17.08L21.13 29.32C22.09 29.62 23.03 29.76 23.94 29.76Z" id="b19s5ltBwr"></path><path d="M23.88 15.58C24.56 15.58 25.25 15.47 25.93 15.25L25.93 9.72C25.25 9.9 24.56 9.99 23.88 9.99C23.19 9.99 22.5 9.9 21.82 9.72L21.82 15.25C22.5 15.47 23.19 15.58 23.88 15.58Z" id="a2xdnYw4wW"></path><path d="M23.88 8.22C24.35 8.22 24.82 8.15 25.29 8C25.29 7.05 25.29 6.46 25.29 6.23C25.29 6.02 25.27 5.81 25.22 5.61C24.76 3.36 24.31 2.24 23.88 2.24C23.44 2.24 22.99 3.36 22.53 5.61C22.48 5.81 22.46 6.02 22.46 6.23C22.46 6.46 22.46 7.05 22.46 8C22.93 8.15 23.4 8.22 23.88 8.22Z" id="a4s0bs6hc9"></path></defs><g><g><g><use xlink:href="#bfY7mu1d5" opacity="1" fill="#ffffff" fill-opacity="1"></use><g><use xlink:href="#bfY7mu1d5" opacity="1" fill-opacity="0" stroke="#ffffff" stroke-width="1" stroke-opacity="1"></use></g></g><g><use xlink:href="#aKcKME0ms" opacity="1" fill="#ffffff" fill-opacity="1"></use><g><use xlink:href="#aKcKME0ms" opacity="1" fill-opacity="0" stroke="#ffffff" stroke-width="1" stroke-opacity="1"></use></g></g><g><use xlink:href="#a63yZczSE" opacity="1" fill="#ffffff" fill-opacity="1"></use><g><use xlink:href="#a63yZczSE" opacity="1" fill-opacity="0" stroke="#ffffff" stroke-width="1" stroke-opacity="1"></use></g></g><g><use xlink:href="#a72SRu56I" opacity="1" fill="#ffffff" fill-opacity="1"></use><g><use xlink:href="#a72SRu56I" opacity="1" fill-opacity="0" stroke="#ffffff" stroke-width="1" stroke-opacity="1"></use></g></g><g><use xlink:href="#bHTzs4wmx" opacity="1" fill="#ffffff" fill-opacity="1"></use><g><use xlink:href="#bHTzs4wmx" opacity="1" fill-opacity="0" stroke="#ffffff" stroke-width="1" stroke-opacity="1"></use></g></g><g><use xlink:href="#acPDVf71x" opacity="1" fill="#ffffff" fill-opacity="1"></use><g><use xlink:href="#acPDVf71x" opacity="1" fill-opacity="0" stroke="#ffffff" stroke-width="1" stroke-opacity="1"></use></g></g><g><use xlink:href="#b19s5ltBwr" opacity="1" fill="#ffffff" fill-opacity="1"></use><g><use xlink:href="#b19s5ltBwr" opacity="1" fill-opacity="0" stroke="#ffffff" stroke-width="1" stroke-opacity="1"></use></g></g><g><use xlink:href="#a2xdnYw4wW" opacity="1" fill="#ffffff" fill-opacity="1"></use><g><use xlink:href="#a2xdnYw4wW" opacity="1" fill-opacity="0" stroke="#ffffff" stroke-width="1" stroke-opacity="1"></use></g></g><g><use xlink:href="#a4s0bs6hc9" opacity="1" fill="#ffffff" fill-opacity="1"></use><g><use xlink:href="#a4s0bs6hc9" opacity="1" fill-opacity="0" stroke="#ffffff" stroke-width="1" stroke-opacity="1"></use></g></g></g></g></svg>