<?xml version="1.0" encoding="UTF-8" standalone="no"?>
<!DOCTYPE svg PUBLIC "-//W3C//DTD SVG 1.1//EN" "http://www.w3.org/Graphics/SVG/1.1/DTD/svg11.dtd">
<svg version="1.1" xmlns="http://www.w3.org/2000/svg" xmlns:xlink="http://www.w3.org/1999/xlink" preserveAspectRatio="xMidYMid meet" viewBox="0 0 32 32" width="32" height="32"><defs><path d="M6.53 17.69C6.94 18.1 7.43 18.42 7.98 18.65L14.96 11.9C14.29 11.55 13.74 11.17 13.33 10.76C12.92 10.34 12.56 9.82 12.26 9.19L5.5 16.17C5.77 16.77 6.12 17.28 6.53 17.69Z" id="alUeJBcL9"></path><path d="M2.95 21.21C3.25 21.52 3.61 21.78 4.02 21.99L6.46 19.55C6.07 19.32 5.72 19.05 5.41 18.74C5.1 18.43 4.83 18.08 4.6 17.7L2.16 20.14C2.38 20.54 2.64 20.9 2.95 21.21Z" id="d287OIZSML"></path><path d="M14.4 9.76C14.66 10.03 14.98 10.24 15.35 10.41C16.6 9.16 17.38 8.38 17.69 8.07C17.69 8.07 18.47 7.22 18.47 7.22C21.16 4 22.38 2.27 22.14 2.02C21.9 1.79 20.26 2.94 17.21 5.47C17.21 5.47 15.84 6.71 15.84 6.71C15.56 6.99 14.86 7.69 13.75 8.8C13.91 9.17 14.13 9.49 14.4 9.76Z" id="axVCaSazd"></path><path d="M11.51 17.19L10.78 20.53L9.47 21.35L9 19.64L11.51 17.19Z" id="a9XwLIqTZV"></path><path d="M6.86 12.75L3.52 13.48L2.7 14.78L4.41 15.25L6.86 12.75Z" id="d1HxF8CVya"></path><path d="M14.52 25.68C14.93 26.09 15.42 26.41 15.97 26.64L22.95 19.89C22.28 19.54 21.73 19.16 21.32 18.75C20.91 18.33 20.55 17.81 20.25 17.18L13.49 24.16C13.76 24.76 14.1 25.26 14.52 25.68Z" id="cvJ5Giz5r"></path><path d="M10.93 29.2C11.24 29.51 11.6 29.77 12.01 29.98L14.45 27.54C14.06 27.31 13.71 27.04 13.4 26.73C13.09 26.42 12.82 26.07 12.59 25.69L10.15 28.12C10.36 28.53 10.63 28.89 10.93 29.2Z" id="dZSULtlH4"></path><path d="M22.38 17.75C22.65 18.02 22.97 18.23 23.34 18.4C24.59 17.15 25.37 16.37 25.68 16.06C25.68 16.06 26.46 15.21 26.46 15.21C29.15 11.99 30.37 10.25 30.12 10.01C29.89 9.78 28.25 10.93 25.19 13.45C25.19 13.45 23.83 14.7 23.83 14.7C23.55 14.98 22.85 15.67 21.74 16.79C21.9 17.16 22.12 17.48 22.38 17.75Z" id="eQZOgVfM"></path><path d="M19.65 25L18.93 28.34L17.62 29.16L17.15 27.45L19.65 25Z" id="g2D1axyUa"></path><path d="M15 20.49L11.66 21.22L10.84 22.53L12.55 23L15 20.49Z" id="gDrJ59hff"></path></defs><g><g><g><use xlink:href="#alUeJBcL9" opacity="1" fill="#ffffff" fill-opacity="1"></use><g><use xlink:href="#alUeJBcL9" opacity="1" fill-opacity="0" stroke="#ffffff" stroke-width="1" stroke-opacity="1"></use></g></g><g><use xlink:href="#d287OIZSML" opacity="1" fill="#ffffff" fill-opacity="1"></use><g><use xlink:href="#d287OIZSML" opacity="1" fill-opacity="0" stroke="#ffffff" stroke-width="1" stroke-opacity="1"></use></g></g><g><use xlink:href="#axVCaSazd" opacity="1" fill="#ffffff" fill-opacity="1"></use><g><use xlink:href="#axVCaSazd" opacity="1" fill-opacity="0" stroke="#ffffff" stroke-width="1" stroke-opacity="1"></use></g></g><g><use xlink:href="#a9XwLIqTZV" opacity="1" fill="#ffffff" fill-opacity="1"></use><g><use xlink:href="#a9XwLIqTZV" opacity="1" fill-opacity="0" stroke="#ffffff" stroke-width="1" stroke-opacity="1"></use></g></g><g><use xlink:href="#d1HxF8CVya" opacity="1" fill="#ffffff" fill-opacity="1"></use><g><use xlink:href="#d1HxF8CVya" opacity="1" fill-opacity="0" stroke="#ffffff" stroke-width="1" stroke-opacity="1"></use></g></g><g><use xlink:href="#cvJ5Giz5r" opacity="1" fill="#ffffff" fill-opacity="1"></use><g><use xlink:href="#cvJ5Giz5r" opacity="1" fill-opacity="0" stroke="#ffffff" stroke-width="1" stroke-opacity="1"></use></g></g><g><use xlink:href="#dZSULtlH4" opacity="1" fill="#ffffff" fill-opacity="1"></use><g><use xlink:href="#dZSULtlH4" opacity="1" fill-opacity="0" stroke="#ffffff" stroke-width="1" stroke-opacity="1"></use></g></g><g><use xlink:href="#eQZOgVfM" opacity="1" fill="#ffffff" fill-opacity="1"></use><g><use xlink:href="#eQZOgVfM" opacity="1" fill-opacity="0" stroke="#ffffff" stroke-width="1" stroke-opacity="1"></use></g></g><g><use xlink:href="#g2D1axyUa" opacity="1" fill="#ffffff" fill-opacity="1"></use><g><use xlink:href="#g2D1axyUa" opacity="1" fill-opacity="0" stroke="#ffffff" stroke-width="1" stroke-opacity="1"></use></g></g><g><use xlink:href="#gDrJ59hff" opacity="1" fill="#ffffff" fill-opacity="1"></use><g><use xlink:href="#gDrJ59hff" opacity="1" fill-opacity="0" stroke="#ffffff" stroke-width="1" stroke-opacity="1"></use></g></g></g></g></svg>